<svg xmlns="http://www.w3.org/2000/svg" xmlns:xlink="http://www.w3.org/1999/xlink" width="2159.852" height="35.803" viewBox="0 0 2159.852 35.803">
  <defs>
    <clipPath id="clip-path">
      <rect width="2159.852" height="35.803" fill="none"/>
    </clipPath>
  </defs>
  <g id="background" clip-path="url(#clip-path)">
    <g id="background-2" data-name="background" transform="translate(0 -218.3)">
      <path id="Path_3" data-name="Path 3" d="M0-150.663s36.724-10.078,54.453-8.958,51.187,10.02,111.44,8.958,94.175-20.361,129.569-13.2,39.173,19.417,93.31,19.417,63.318-9.57,111.44-22.977c27.814-7.749,49.385,9.576,71.309,16.765,15.681,5.142,36.331,0,36.331,0v17.084H0Z" transform="translate(0 387.681)" fill="#fff"/>
    </g>
    <g id="background-3" data-name="background" transform="translate(606 -218.3)">
      <path id="Path_3-2" data-name="Path 3" d="M0-150.663s36.724-10.078,54.453-8.958,51.187,10.02,111.44,8.958,94.175-20.361,129.569-13.2,39.173,19.417,93.31,19.417,63.318-9.57,111.44-22.977c27.814-7.749,49.385,9.576,71.309,16.765,15.681,5.142,36.331,0,36.331,0v17.084H0Z" transform="translate(0 387.681)" fill="#fff"/>
    </g>
    <g id="background-4" data-name="background" transform="translate(1212 -218.3)">
      <path id="Path_3-3" data-name="Path 3" d="M0-150.663s36.724-10.078,54.453-8.958,51.187,10.02,111.44,8.958,94.175-20.361,129.569-13.2,39.173,19.417,93.31,19.417,63.318-9.57,111.44-22.977c27.814-7.749,49.385,9.576,71.309,16.765,15.681,5.142,36.331,0,36.331,0v17.084H0Z" transform="translate(0 387.681)" fill="#fff"/>
    </g>
    <g id="background-5" data-name="background" transform="translate(1818 -218.3)">
      <path id="Path_3-4" data-name="Path 3" d="M0-150.663s36.724-10.078,54.453-8.958,51.187,10.02,111.44,8.958,94.175-20.361,129.569-13.2,39.173,19.417,93.31,19.417,63.318-9.57,111.44-22.977c27.814-7.749,49.385,9.576,71.309,16.765,15.681,5.142,36.331,0,36.331,0v17.084H0Z" transform="translate(0 387.681)" fill="#fff"/>
    </g>
  </g>
</svg>
