<svg xmlns="http://www.w3.org/2000/svg" xmlns:xlink="http://www.w3.org/1999/xlink" width="2042" height="89.132" viewBox="0 0 2042 89.132">
  <defs>
    <clipPath id="clip-path">
      <rect width="2042" height="77.132" fill="none"/>
    </clipPath>
  </defs>
  <g id="backgroundone" transform="translate(38 -489.434)">
    <g id="backgroundone-2" data-name="backgroundone" transform="translate(-38 501.434)" clip-path="url(#clip-path)">
      <g transform="translate(0 -427.868)">
        <path id="Path_4" data-name="Path 4" d="M0-2.237S16.683-5.053,47.158,2.177,85.2,27.788,129.907,26.684,173.95-2.237,226-2.237s52.941,27.818,104.1,28.922S385.363,9.408,411.964,2.177s35.221-4.414,35.221-4.414V74.355H0Z" transform="translate(0 430.645)" fill="#fff"/>
      </g>
      <g transform="translate(444 -427.868)">
        <path id="Path_4-2" data-name="Path 4" d="M0-2.237S16.683-5.053,47.158,2.177,85.2,27.788,129.907,26.684,173.95-2.237,226-2.237s52.941,27.818,104.1,28.922S385.363,9.408,411.964,2.177s35.221-4.414,35.221-4.414V74.355H0Z" transform="translate(0 430.645)" fill="#fff"/>
      </g>
      <g transform="translate(888 -427.868)">
        <path id="Path_4-3" data-name="Path 4" d="M0-2.237S16.683-5.053,47.158,2.177,85.2,27.788,129.907,26.684,173.95-2.237,226-2.237s52.941,27.818,104.1,28.922S385.363,9.408,411.964,2.177s35.221-4.414,35.221-4.414V74.355H0Z" transform="translate(0 430.645)" fill="#fff"/>
      </g>
      <g transform="translate(1332 -427.868)">
        <path id="Path_4-4" data-name="Path 4" d="M0-2.237S16.683-5.053,47.158,2.177,85.2,27.788,129.907,26.684,173.95-2.237,226-2.237s52.941,27.818,104.1,28.922S385.363,9.408,411.964,2.177s35.221-4.414,35.221-4.414V74.355H0Z" transform="translate(0 430.645)" fill="#fff"/>
      </g>
      <g transform="translate(1776 -427.868)">
        <path id="Path_4-5" data-name="Path 4" d="M0-2.237S16.683-5.053,47.158,2.177,85.2,27.788,129.907,26.684,173.95-2.237,226-2.237s52.941,27.818,104.1,28.922S385.363,9.408,411.964,2.177s35.221-4.414,35.221-4.414V74.355H0Z" transform="translate(0 430.645)" fill="#fff"/>
      </g>
    </g>
    <g id="backgroundone-3" data-name="backgroundone" transform="translate(-38 489.434)" opacity="0.62" clip-path="url(#clip-path)">
      <g transform="translate(0 -427.868)">
        <path id="Path_4-6" data-name="Path 4" d="M0-2.237S16.683-5.053,47.158,2.177,85.2,27.788,129.907,26.684,173.95-2.237,226-2.237s52.941,27.818,104.1,28.922S385.363,9.408,411.964,2.177s35.221-4.414,35.221-4.414V74.355H0Z" transform="translate(0 430.645)" fill="#fff"/>
      </g>
      <g transform="translate(444 -427.868)">
        <path id="Path_4-7" data-name="Path 4" d="M0-2.237S16.683-5.053,47.158,2.177,85.2,27.788,129.907,26.684,173.95-2.237,226-2.237s52.941,27.818,104.1,28.922S385.363,9.408,411.964,2.177s35.221-4.414,35.221-4.414V74.355H0Z" transform="translate(0 430.645)" fill="#fff"/>
      </g>
      <g transform="translate(888 -427.868)">
        <path id="Path_4-8" data-name="Path 4" d="M0-2.237S16.683-5.053,47.158,2.177,85.2,27.788,129.907,26.684,173.95-2.237,226-2.237s52.941,27.818,104.1,28.922S385.363,9.408,411.964,2.177s35.221-4.414,35.221-4.414V74.355H0Z" transform="translate(0 430.645)" fill="#fff"/>
      </g>
      <g transform="translate(1332 -427.868)">
        <path id="Path_4-9" data-name="Path 4" d="M0-2.237S16.683-5.053,47.158,2.177,85.2,27.788,129.907,26.684,173.95-2.237,226-2.237s52.941,27.818,104.1,28.922S385.363,9.408,411.964,2.177s35.221-4.414,35.221-4.414V74.355H0Z" transform="translate(0 430.645)" fill="#fff"/>
      </g>
      <g transform="translate(1776 -427.868)">
        <path id="Path_4-10" data-name="Path 4" d="M0-2.237S16.683-5.053,47.158,2.177,85.2,27.788,129.907,26.684,173.95-2.237,226-2.237s52.941,27.818,104.1,28.922S385.363,9.408,411.964,2.177s35.221-4.414,35.221-4.414V74.355H0Z" transform="translate(0 430.645)" fill="#fff"/>
      </g>
    </g>
  </g>
</svg>
